<svg width="82" height="84" viewBox="0 0 82 84" fill="none" xmlns="http://www.w3.org/2000/svg">
<mask id="mask0_1229_10444" style="mask-type:alpha" maskUnits="userSpaceOnUse" x="0" y="0" width="82" height="84">
<path d="M79.7733 25.4998V14.1347C79.7733 13.3445 79.1623 12.6979 78.4157 12.6979H73.8545V8.68892C73.8545 6.31808 72.035 4.39258 69.795 4.39258H65.2604C63.0203 4.39258 61.2009 6.31825 61.2009 8.68892V72.0815C61.2009 72.3259 61.2688 72.5415 61.3773 72.7422L61.364 72.7563L66.3324 82.6563C66.5633 83.1303 67.0246 83.4177 67.527 83.4177C68.0294 83.4177 68.4906 83.1303 68.7216 82.6563L73.69 72.7563L73.6767 72.7422C73.7718 72.5408 73.8531 72.3253 73.8531 72.0815L73.8543 15.5709H77.0579V26.0886C77.0579 26.4767 77.207 26.8359 77.4518 27.1085L80.0859 29.8962L81.9998 27.8706L79.7733 25.4998ZM65.261 7.26606H69.7956C70.5423 7.26606 71.1399 7.89852 71.1399 8.68878V12.6978H63.9174L63.9168 8.68878C63.9168 7.89852 64.5144 7.26606 65.261 7.26606H65.261ZM67.5282 78.92L64.8131 73.5179H70.2301L67.5282 78.92ZM71.1391 70.6442H63.9166V15.5704H71.1391V70.6442Z" fill="black"/>
<path d="M54.6435 0.872559H1.35759C0.610916 0.872559 0 1.51913 0 2.30938V82.1819C0 82.9722 0.610916 83.6188 1.35759 83.6188H54.6435C55.3901 83.6188 56.001 82.9722 56.001 82.1819V2.30938C56.001 1.51913 55.3901 0.872559 54.6435 0.872559ZM53.2859 80.7451H2.71518V3.7462H53.2859V80.7451Z" fill="black"/>
<path d="M23.7985 36.937H48.4259V39.8107H23.7985V36.937Z" fill="black"/>
<path d="M23.7985 43.9058H42.4929V46.7794H23.7985V43.9058Z" fill="black"/>
<path d="M7.57658 47.6417H15.7901C16.5368 47.6417 17.1477 46.9951 17.1477 46.2049V37.512C17.1477 36.7218 16.5368 36.0752 15.7901 36.0752H7.57658C6.82991 36.0752 6.21899 36.7218 6.21899 37.512V46.2049C6.21899 46.9951 6.82991 47.6417 7.57658 47.6417ZM8.93418 38.9488H14.4325V44.7681H8.93418V38.9488Z" fill="black"/>
<path d="M23.7985 17.2236H48.4259V20.0973H23.7985V17.2236Z" fill="black"/>
<path d="M23.7985 24.1924H42.4929V27.066H23.7985V24.1924Z" fill="black"/>
<path d="M23.7985 57.4121H48.4259V60.2858H23.7985V57.4121Z" fill="black"/>
<path d="M23.7985 64.3809H42.4929V67.2545H23.7985V64.3809Z" fill="black"/>
<path d="M7.57658 68.1163H15.7901C16.5368 68.1163 17.1477 67.4697 17.1477 66.6795V57.9866C17.1477 57.1964 16.5368 56.5498 15.7901 56.5498H7.57658C6.82991 56.5498 6.21899 57.1964 6.21899 57.9866V66.6795C6.21899 67.4697 6.82991 68.1163 7.57658 68.1163ZM8.93418 59.4235H14.4325V65.2427H8.93418V59.4235Z" fill="black"/>
<path d="M10.713 26.6639C11.0797 26.6639 11.4191 26.5061 11.6767 26.2469L18.4513 19.0769L16.5373 17.0513L10.727 23.2007L8.31063 20.6285L6.38269 22.6542L9.76333 26.2463C10.007 26.5061 10.3464 26.6639 10.713 26.6639V26.6639Z" fill="black"/>
</mask>
<g mask="url(#mask0_1229_10444)">
<rect x="-3.61768" y="-3.95117" width="92.8529" height="113.353" fill="url(#paint0_linear_1229_10444)"/>
</g>
<defs>
<linearGradient id="paint0_linear_1229_10444" x1="42.8088" y1="-3.95117" x2="42.8088" y2="109.402" gradientUnits="userSpaceOnUse">
<stop stop-color="#94F8DC"/>
<stop offset="1" stop-color="#06C18F"/>
</linearGradient>
</defs>
</svg>
