<svg width="88" height="84" viewBox="0 0 88 84" fill="none" xmlns="http://www.w3.org/2000/svg">
<mask id="mask0_1229_10475" style="mask-type:alpha" maskUnits="userSpaceOnUse" x="0" y="0" width="88" height="84">
<rect width="88" height="84" fill="#D9D9D9"/>
</mask>
<g mask="url(#mask0_1229_10475)">
<path d="M81.7778 4.60596H52.8889C49.2443 4.60596 46.0443 6.49673 44 9.3333C41.9557 6.49673 38.7557 4.60596 35.1111 4.60596H6.22222C4.97781 4.60596 4 5.64601 4 6.96963V63.6978C4 65.0214 4.97781 66.0615 6.22222 66.0615H35.1111C38.7557 66.0615 41.7778 69.2759 41.7778 73.1525C41.7778 74.4761 42.7556 75.5162 44 75.5162C45.2444 75.5162 46.2222 74.4761 46.2222 73.1525C46.2222 69.2759 49.2443 66.0615 52.8889 66.0615H81.7778C83.0222 66.0615 84 65.0214 84 63.6978V6.96963C84 5.64601 83.0222 4.60596 81.7778 4.60596ZM41.7778 63.6978C39.9108 62.1849 37.6 61.3341 35.1111 61.3341H8.44444V9.3333H35.1111C38.7557 9.3333 41.7778 12.5477 41.7778 16.4243V63.6978ZM79.5556 61.3341H52.8889C50.4 61.3341 48.0892 62.1849 46.2222 63.6978V16.4243C46.2222 12.5477 49.2443 9.3333 52.8889 9.3333H79.5556V61.3341Z" fill="url(#paint0_linear_1229_10475)"/>
<path d="M35.111 14.0607H15.111C13.8666 14.0607 12.8888 15.1007 12.8888 16.4243V25.879C12.8888 27.2027 13.8666 28.2427 15.111 28.2427H35.111C36.3554 28.2427 37.3332 27.2027 37.3332 25.879V16.4243C37.3332 15.1007 36.3554 14.0607 35.111 14.0607ZM32.8888 23.5154H17.3332V18.788H32.8888V23.5154Z" fill="url(#paint1_linear_1229_10475)"/>
<path d="M72.8889 32.9701H64C62.7556 32.9701 61.7778 34.0101 61.7778 35.3338V44.7885C61.7778 46.1121 62.7556 47.1521 64 47.1521H72.8889C74.1333 47.1521 75.1111 46.1121 75.1111 44.7885V35.3338C75.1111 34.0101 74.1333 32.9701 72.8889 32.9701ZM70.6667 42.4248H66.2222V37.6974H70.6667V42.4248Z" fill="url(#paint2_linear_1229_10475)"/>
<path d="M35.111 32.9701H15.111C13.8666 32.9701 12.8888 34.0101 12.8888 35.3338C12.8888 36.6574 13.8666 37.6974 15.111 37.6974H35.111C36.3554 37.6974 37.3332 36.6574 37.3332 35.3338C37.3332 34.0101 36.3554 32.9701 35.111 32.9701Z" fill="url(#paint3_linear_1229_10475)"/>
<path d="M35.111 42.4248H15.111C13.8666 42.4248 12.8888 43.4648 12.8888 44.7885C12.8888 46.1121 13.8666 47.1521 15.111 47.1521H35.111C36.3554 47.1521 37.3332 46.1121 37.3332 44.7885C37.3332 43.4648 36.3554 42.4248 35.111 42.4248Z" fill="url(#paint4_linear_1229_10475)"/>
<path d="M35.111 51.8794H15.111C13.8666 51.8794 12.8888 52.9194 12.8888 54.243C12.8888 55.5667 13.8666 56.6067 15.111 56.6067H35.111C36.3554 56.6067 37.3332 55.5667 37.3332 54.243C37.3332 52.9194 36.3554 51.8794 35.111 51.8794Z" fill="url(#paint5_linear_1229_10475)"/>
<path d="M50.6666 16.4243C50.6666 17.748 51.6444 18.788 52.8888 18.788H72.8888C74.1332 18.788 75.111 17.748 75.111 16.4243C75.111 15.1007 74.1332 14.0607 72.8888 14.0607H52.8888C51.6444 14.0607 50.6666 15.1007 50.6666 16.4243Z" fill="url(#paint6_linear_1229_10475)"/>
<path d="M72.8888 23.5154H52.8888C51.6444 23.5154 50.6666 24.5554 50.6666 25.879C50.6666 27.2027 51.6444 28.2427 52.8888 28.2427H72.8888C74.1332 28.2427 75.111 27.2027 75.111 25.879C75.111 24.5554 74.1332 23.5154 72.8888 23.5154Z" fill="url(#paint7_linear_1229_10475)"/>
<path d="M72.8888 51.8794H52.8888C51.6444 51.8794 50.6666 52.9194 50.6666 54.243C50.6666 55.5667 51.6444 56.6067 52.8888 56.6067H72.8888C74.1332 56.6067 75.111 55.5667 75.111 54.243C75.111 52.9194 74.1332 51.8794 72.8888 51.8794Z" fill="url(#paint8_linear_1229_10475)"/>
<path d="M52.8888 37.6974H57.3332C58.5777 37.6974 59.5555 36.6574 59.5555 35.3338C59.5555 34.0101 58.5777 32.9701 57.3332 32.9701H52.8888C51.6444 32.9701 50.6666 34.0101 50.6666 35.3338C50.6666 36.6574 51.6444 37.6974 52.8888 37.6974Z" fill="url(#paint9_linear_1229_10475)"/>
<path d="M52.8888 47.1521H57.3332C58.5777 47.1521 59.5555 46.1121 59.5555 44.7885C59.5555 43.4648 58.5777 42.4248 57.3332 42.4248H52.8888C51.6444 42.4248 50.6666 43.4648 50.6666 44.7885C50.6666 46.1121 51.6444 47.1521 52.8888 47.1521Z" fill="url(#paint10_linear_1229_10475)"/>
</g>
<defs>
<linearGradient id="paint0_linear_1229_10475" x1="65.5" y1="-11.5001" x2="100.112" y2="75.9554" gradientUnits="userSpaceOnUse">
<stop stop-color="#E1B30D"/>
<stop offset="1" stop-color="white"/>
</linearGradient>
<linearGradient id="paint1_linear_1229_10475" x1="65.5" y1="-11.5001" x2="100.112" y2="75.9554" gradientUnits="userSpaceOnUse">
<stop stop-color="#E1B30D"/>
<stop offset="1" stop-color="white"/>
</linearGradient>
<linearGradient id="paint2_linear_1229_10475" x1="65.5" y1="-11.5001" x2="100.112" y2="75.9554" gradientUnits="userSpaceOnUse">
<stop stop-color="#E1B30D"/>
<stop offset="1" stop-color="white"/>
</linearGradient>
<linearGradient id="paint3_linear_1229_10475" x1="65.5" y1="-11.5001" x2="100.112" y2="75.9554" gradientUnits="userSpaceOnUse">
<stop stop-color="#E1B30D"/>
<stop offset="1" stop-color="white"/>
</linearGradient>
<linearGradient id="paint4_linear_1229_10475" x1="65.5" y1="-11.5001" x2="100.112" y2="75.9554" gradientUnits="userSpaceOnUse">
<stop stop-color="#E1B30D"/>
<stop offset="1" stop-color="white"/>
</linearGradient>
<linearGradient id="paint5_linear_1229_10475" x1="65.5" y1="-11.5001" x2="100.112" y2="75.9554" gradientUnits="userSpaceOnUse">
<stop stop-color="#E1B30D"/>
<stop offset="1" stop-color="white"/>
</linearGradient>
<linearGradient id="paint6_linear_1229_10475" x1="65.5" y1="-11.5001" x2="100.112" y2="75.9554" gradientUnits="userSpaceOnUse">
<stop stop-color="#E1B30D"/>
<stop offset="1" stop-color="white"/>
</linearGradient>
<linearGradient id="paint7_linear_1229_10475" x1="65.5" y1="-11.5001" x2="100.112" y2="75.9554" gradientUnits="userSpaceOnUse">
<stop stop-color="#E1B30D"/>
<stop offset="1" stop-color="white"/>
</linearGradient>
<linearGradient id="paint8_linear_1229_10475" x1="65.5" y1="-11.5001" x2="100.112" y2="75.9554" gradientUnits="userSpaceOnUse">
<stop stop-color="#E1B30D"/>
<stop offset="1" stop-color="white"/>
</linearGradient>
<linearGradient id="paint9_linear_1229_10475" x1="65.5" y1="-11.5001" x2="100.112" y2="75.9554" gradientUnits="userSpaceOnUse">
<stop stop-color="#E1B30D"/>
<stop offset="1" stop-color="white"/>
</linearGradient>
<linearGradient id="paint10_linear_1229_10475" x1="65.5" y1="-11.5001" x2="100.112" y2="75.9554" gradientUnits="userSpaceOnUse">
<stop stop-color="#E1B30D"/>
<stop offset="1" stop-color="white"/>
</linearGradient>
</defs>
</svg>
