<svg width="102" height="71" viewBox="0 0 102 71" fill="none" xmlns="http://www.w3.org/2000/svg">
<mask id="mask0_1229_10464" style="mask-type:alpha" maskUnits="userSpaceOnUse" x="0" y="0" width="102" height="71">
<path d="M97.5986 65.7744H62.7622C62.5274 65.7744 62.4104 65.7744 62.2934 65.8991C61.4719 66.1494 60.7683 67.0243 60.7683 68.0248C60.7683 69.2757 61.7068 70.1505 62.7622 70.1505H97.9505C100.179 70.1505 101.938 67.9001 101.938 64.8985L101.939 9.62704C101.939 6.75115 100.18 4.375 97.9513 4.375H47.7494C46.5761 4.375 45.7555 5.3755 45.7555 6.50071C45.7555 7.62595 46.6939 8.62643 47.7494 8.62643H97.7167C97.8337 8.75116 97.8337 9.12624 97.8337 9.50219V64.7736C97.8337 65.2734 97.7167 65.6485 97.5989 65.7741L97.5986 65.7744Z" fill="url(#paint0_linear_1229_10464)"/>
<path d="M2.00436 70.1512C3.17764 70.1512 3.99826 69.1507 3.99826 68.0255C3.99826 54.5203 15.2589 43.516 28.9819 43.516C42.8222 43.516 53.9656 54.5205 53.9656 68.0255C53.9656 69.2764 54.9041 70.1512 55.9595 70.1512C57.1328 70.1512 57.9534 69.1507 57.9534 68.0255C57.9534 66.3996 57.8364 64.8993 57.6016 63.3989H92.7898C93.9631 63.3989 94.7837 62.3984 94.7837 61.2732V13.3796C94.7837 12.1288 93.8453 11.2539 92.7898 11.2539H44.3473C42.0016 4.62635 36.019 0 29.0989 0C20.067 0 12.795 7.87828 12.795 17.3817C12.795 26.8852 20.1847 34.7635 29.0989 34.7635C37.1924 34.7635 43.9954 28.3862 45.168 20.1328C45.285 19.2571 45.4028 18.2574 45.4028 17.3817C45.4028 16.7563 45.4028 16.1309 45.2858 15.6311H90.9132V59.023L56.7806 59.0221C56.077 56.8964 55.1385 54.8955 53.9653 53.02C48.8042 44.6417 39.6554 39.1396 29.099 39.1396C13.0299 39.1396 0.0100035 52.1442 0.0100035 68.0258C-0.107814 69.151 0.830644 70.1515 2.0039 70.1515L2.00436 70.1512ZM29.0993 30.3858C22.2963 30.3858 16.9011 24.5085 16.9011 17.3812C16.9011 10.253 22.414 4.37659 29.0993 4.37659C35.9024 4.37659 41.2975 10.2539 41.2975 17.3812C41.2975 24.5085 35.7855 30.3858 29.0993 30.3858Z" fill="url(#paint1_linear_1229_10464)"/>
<path d="M67.4541 55.0203C76.6031 55.0203 84.1099 47.0172 84.1099 37.2634C84.1099 27.5087 76.7202 19.5059 67.4541 19.5059C58.1875 19.5059 50.7984 27.509 50.7984 37.2627C50.7984 47.0174 58.3052 55.0203 67.4541 55.0203ZM67.4541 23.8832C74.3743 23.8832 80.005 29.8853 80.005 37.2639C80.0042 44.6415 74.3743 50.6436 67.4541 50.6436C60.534 50.6436 54.9032 44.6415 54.9032 37.263C54.9032 29.8853 60.534 23.8832 67.4541 23.8832Z" fill="url(#paint2_linear_1229_10464)"/>
<path d="M62.6462 45.6418C62.998 45.8921 63.3498 45.8921 63.7016 45.8921C64.0535 45.8921 64.4053 45.7674 64.7571 45.6418L75.4311 39.139C76.0177 38.764 76.4866 38.0138 76.4866 37.2637C76.4866 36.5135 76.1347 35.7633 75.4311 35.3883L64.7571 28.7598C64.1705 28.3847 63.3498 28.3847 62.7632 28.7598C62.1766 29.1349 61.7077 29.8851 61.7077 30.6352V43.7655C61.5908 44.6413 62.0596 45.2667 62.6462 45.6418L62.6462 45.6418ZM65.6956 34.5125L70.153 37.2635L65.6956 40.0137V34.5125Z" fill="url(#paint3_linear_1229_10464)"/>
</mask>
<g mask="url(#mask0_1229_10464)">
<rect x="-1.22748" y="-1.22754" width="106.79" height="83.4677" fill="url(#paint4_linear_1229_10464)"/>
</g>
<defs>
<linearGradient id="paint0_linear_1229_10464" x1="72.9551" y1="1.93887" x2="71.8506" y2="103.639" gradientUnits="userSpaceOnUse">
<stop stop-color="white"/>
<stop offset="1" stop-color="#E25858" stop-opacity="0"/>
</linearGradient>
<linearGradient id="paint1_linear_1229_10464" x1="45.8868" y1="-2.5982" x2="45.142" y2="105.876" gradientUnits="userSpaceOnUse">
<stop stop-color="white"/>
<stop offset="1" stop-color="#E25858" stop-opacity="0"/>
</linearGradient>
<linearGradient id="paint2_linear_1229_10464" x1="66.9252" y1="18.1905" x2="66.3821" y2="73.103" gradientUnits="userSpaceOnUse">
<stop stop-color="white"/>
<stop offset="1" stop-color="#E25858" stop-opacity="0"/>
</linearGradient>
<linearGradient id="paint3_linear_1229_10464" x1="68.8532" y1="27.8336" x2="68.5592" y2="54.7579" gradientUnits="userSpaceOnUse">
<stop stop-color="white"/>
<stop offset="1" stop-color="#E25858" stop-opacity="0"/>
</linearGradient>
<linearGradient id="paint4_linear_1229_10464" x1="112.313" y1="147.296" x2="36.2102" y2="20.8669" gradientUnits="userSpaceOnUse">
<stop stop-color="white"/>
<stop offset="1" stop-color="#F46D6D"/>
</linearGradient>
</defs>
</svg>
