<svg width="89" height="94" viewBox="0 0 89 94" fill="none" xmlns="http://www.w3.org/2000/svg">
<g opacity="0.33" filter="url(#filter0_d_1229_10479)">
<mask id="mask0_1229_10479" style="mask-type:alpha" maskUnits="userSpaceOnUse" x="4" y="0" width="81" height="86">
<path d="M28.3789 2.61095e-05C27.7072 -0.0032729 27.0625 0.306178 26.5862 0.859753C26.1097 1.41333 25.8416 2.16487 25.8399 2.95003V14.3411H6.53839C6.45146 14.3358 6.36397 14.3358 6.27704 14.3411C5.65273 14.4143 5.07359 14.7561 4.65309 15.3005C4.23199 15.8442 3.99944 16.5521 4 17.2852V34.3284C4 40.5002 8.07215 45.4527 13.7597 49.0098C18.8564 52.1974 25.9325 54.1201 33.5511 55.2741V46.6544C33.5489 45.8659 33.8153 45.1104 34.2917 44.5529C34.7687 43.996 35.4161 43.6846 36.0901 43.6872H52.8541C53.5247 43.6905 54.1665 44.0046 54.6389 44.5615C55.1113 45.1177 55.375 45.8712 55.3727 46.6552V55.2749C62.9992 54.1222 70.0775 52.2009 75.1785 49.0106C80.8661 45.4535 84.9237 40.501 84.9237 34.3292V17.286C84.9208 16.5061 84.655 15.7592 84.1831 15.2075C83.7112 14.6559 83.0722 14.3451 82.4044 14.3418H63.0826V2.95078C63.0815 2.17022 62.8156 1.42133 62.3437 0.868436C61.8718 0.316179 61.2323 0.00408118 60.564 0.000787405L28.3789 2.61095e-05ZM30.8976 5.91785H58.0226V14.341H30.8976V5.91785ZM38.6077 49.5984V57.2825H50.3137V49.5984H38.6077ZM82.3088 50.6257C80.8226 51.9856 79.2156 53.1885 77.5621 54.2224C72.6569 57.2905 66.6837 58.9539 60.4282 60.1804V60.2041C47.2223 62.4613 40.3825 62.5187 28.4912 60.2041V60.1804C22.2419 58.9531 16.2743 57.2884 11.3731 54.2229C9.7243 53.1916 8.11553 51.998 6.63161 50.6435V82.6793C6.62879 83.4631 6.89296 84.216 7.36542 84.7722C7.83788 85.3291 8.47968 85.6432 9.15035 85.6465H79.7901C80.4607 85.6432 81.1025 85.3291 81.5751 84.7722C82.0475 84.216 82.3117 83.4632 82.3089 82.6793L82.3088 50.6257Z" fill="#A60000"/>
</mask>
<g mask="url(#mask0_1229_10479)">
<rect x="2" width="89" height="97" fill="url(#paint0_linear_1229_10479)"/>
</g>
</g>
<defs>
<filter id="filter0_d_1229_10479" x="0" y="0" width="88.9236" height="93.6465" filterUnits="userSpaceOnUse" color-interpolation-filters="sRGB">
<feFlood flood-opacity="0" result="BackgroundImageFix"/>
<feColorMatrix in="SourceAlpha" type="matrix" values="0 0 0 0 0 0 0 0 0 0 0 0 0 0 0 0 0 0 127 0" result="hardAlpha"/>
<feOffset dy="4"/>
<feGaussianBlur stdDeviation="2"/>
<feComposite in2="hardAlpha" operator="out"/>
<feColorMatrix type="matrix" values="0 0 0 0 0 0 0 0 0 0 0 0 0 0 0 0 0 0 0.25 0"/>
<feBlend mode="normal" in2="BackgroundImageFix" result="effect1_dropShadow_1229_10479"/>
<feBlend mode="normal" in="SourceGraphic" in2="effect1_dropShadow_1229_10479" result="shape"/>
</filter>
<linearGradient id="paint0_linear_1229_10479" x1="43" y1="30" x2="46.5" y2="97" gradientUnits="userSpaceOnUse">
<stop stop-color="#16ACDB"/>
<stop offset="1" stop-color="#028858"/>
</linearGradient>
</defs>
</svg>
